
          <svg xmlns="http://www.w3.org/2000/svg" width="800" height="400" viewBox="0 0 800 400">
            <!-- https://grabient.com/HQNgTAHANMAsEFYZjLKBaADMAzARmi2DAE4QZYTDtY8wNswQSY8B2cvXJh4BE+ui6ZMOIA?style=angularSwatches&steps=15&angle=210 -->
        
          <defs>
            <clipPath id="squareClip">
              <rect x="0" y="0" width="800" height="400" />
            </clipPath>
          </defs>
          <g clip-path="url(#squareClip)">
        <path d="
              M 400.000,200.000
              L 176.393,587.299
              A 447.214,447.214 0 0 1 38.196,462.866
              Z
            " fill="rgb(197, 187, 184)" fill-opacity="1.000" /><path d="
              M 400.000,200.000
              L 38.196,462.866
              A 447.214,447.214 0 0 1 -37.441,292.981
              Z
            " fill="rgb(184, 181, 184)" fill-opacity="1.000" /><path d="
              M 400.000,200.000
              L -37.441,292.981
              A 447.214,447.214 0 0 1 -37.441,107.019
              Z
            " fill="rgb(169, 175, 183)" fill-opacity="1.000" /><path d="
              M 400.000,200.000
              L -37.441,107.019
              A 447.214,447.214 0 0 1 38.196,-62.866
              Z
            " fill="rgb(154, 168, 181)" fill-opacity="1.000" /><path d="
              M 400.000,200.000
              L 38.196,-62.866
              A 447.214,447.214 0 0 1 176.393,-187.299
              Z
            " fill="rgb(139, 161, 179)" fill-opacity="1.000" /><path d="
              M 400.000,200.000
              L 176.393,-187.299
              A 447.214,447.214 0 0 1 353.253,-244.764
              Z
            " fill="rgb(125, 152, 175)" fill-opacity="1.000" /><path d="
              M 400.000,200.000
              L 353.253,-244.764
              A 447.214,447.214 0 0 1 538.197,-225.326
              Z
            " fill="rgb(112, 144, 171)" fill-opacity="1.000" /><path d="
              M 400.000,200.000
              L 538.197,-225.326
              A 447.214,447.214 0 0 1 699.245,-132.345
              Z
            " fill="rgb(101, 135, 166)" fill-opacity="1.000" /><path d="
              M 400.000,200.000
              L 699.245,-132.345
              A 447.214,447.214 0 0 1 808.550,18.102
              Z
            " fill="rgb(92, 126, 161)" fill-opacity="1.000" /><path d="
              M 400.000,200.000
              L 808.550,18.102
              A 447.214,447.214 0 0 1 847.214,200.000
              Z
            " fill="rgb(85, 117, 155)" fill-opacity="1.000" /><path d="
              M 400.000,200.000
              L 847.214,200.000
              A 447.214,447.214 0 0 1 808.550,381.898
              Z
            " fill="rgb(81, 108, 148)" fill-opacity="1.000" /><path d="
              M 400.000,200.000
              L 808.550,381.898
              A 447.214,447.214 0 0 1 699.245,532.345
              Z
            " fill="rgb(79, 99, 141)" fill-opacity="1.000" /><path d="
              M 400.000,200.000
              L 699.245,532.345
              A 447.214,447.214 0 0 1 538.197,625.326
              Z
            " fill="rgb(80, 90, 133)" fill-opacity="1.000" /><path d="
              M 400.000,200.000
              L 538.197,625.326
              A 447.214,447.214 0 0 1 353.253,644.764
              Z
            " fill="rgb(84, 83, 125)" fill-opacity="1.000" /><path d="
              M 400.000,200.000
              L 353.253,644.764
              A 447.214,447.214 0 0 1 176.393,587.299
              Z
            " fill="rgb(91, 75, 116)" fill-opacity="1.000" />
          </g>
        </svg>
        